<svg width="87" height="24" viewBox="0 0 87 24" fill="none" xmlns="http://www.w3.org/2000/svg">
<path d="M13.656 2.00803C13.544 3.36802 13.488 4.58402 13.488 5.65602C13.488 6.40802 13.512 7.01603 13.56 7.48002H13.008C12.688 5.67202 12.208 4.40002 11.568 3.66402C10.928 2.92802 10.032 2.56002 8.88001 2.56002H8.08801C7.59201 2.56002 7.23201 2.60002 7.00801 2.68003C6.78401 2.76003 6.63201 2.92002 6.55201 3.16002C6.47201 3.38402 6.43201 3.75202 6.43201 4.26402V10.312H7.27201C8.12001 10.312 8.76001 10 9.19201 9.37602C9.64001 8.75202 9.95201 8.00802 10.128 7.14402H10.68C10.632 7.81602 10.608 8.56803 10.608 9.40003V10.552C10.608 11.368 10.656 12.504 10.752 13.96H10.2C9.86401 11.848 8.88801 10.792 7.27201 10.792H6.43201V16.312C6.43201 16.952 6.49601 17.424 6.62401 17.728C6.76801 18.016 7.00801 18.208 7.34401 18.304C7.69601 18.4 8.24801 18.456 9.00001 18.472V19C7.03201 18.952 5.56801 18.928 4.60801 18.928C3.80801 18.928 2.80001 18.944 1.58401 18.976L0.81601 19V18.52C1.34401 18.488 1.72801 18.424 1.96801 18.328C2.22401 18.232 2.39201 18.048 2.47201 17.776C2.56801 17.504 2.61601 17.064 2.61601 16.456V4.55202C2.61601 3.94402 2.56801 3.50402 2.47201 3.23203C2.39201 2.96002 2.22401 2.77602 1.96801 2.68003C1.72801 2.58402 1.34401 2.52002 0.81601 2.48802V2.00803C2.54401 2.05602 5.15201 2.08002 8.64001 2.08002C10.992 2.08002 12.664 2.05602 13.656 2.00803Z" fill="#10375C"/>
<path d="M23.0351 6.25602C23.7551 6.25602 24.2991 6.47202 24.6671 6.90403C25.0351 7.33602 25.2191 7.85603 25.2191 8.46403C25.2191 9.05603 25.0431 9.54402 24.6911 9.92802C24.3551 10.296 23.9071 10.48 23.3471 10.48C22.8031 10.48 22.3711 10.344 22.0511 10.072C21.7311 9.78403 21.5711 9.40803 21.5711 8.94403C21.5711 8.17603 21.9231 7.55203 22.6271 7.07203C22.5631 7.05603 22.4671 7.04802 22.3391 7.04802C22.1791 7.04802 22.0511 7.06402 21.9551 7.09602C21.3471 7.19202 20.8271 7.56002 20.3951 8.20002C19.9791 8.84002 19.7711 9.49602 19.7711 10.168V16.528C19.7711 17.264 19.9471 17.776 20.2991 18.064C20.6671 18.352 21.2431 18.496 22.0271 18.496V19C21.8031 19 21.6191 18.992 21.4751 18.976C19.8431 18.928 18.7551 18.904 18.2111 18.904C17.7791 18.904 16.7951 18.928 15.2591 18.976C15.1311 18.992 14.9711 19 14.7791 19V18.496C15.3551 18.496 15.7551 18.376 15.9791 18.136C16.2031 17.88 16.3151 17.424 16.3151 16.768V9.20802C16.3151 8.47202 16.2031 7.93602 15.9791 7.60002C15.7551 7.26402 15.3551 7.09602 14.7791 7.09602V6.59202C15.2911 6.64003 15.7871 6.66403 16.2671 6.66403C17.6911 6.66403 18.8591 6.55203 19.7711 6.32803V8.56002C20.0751 7.87202 20.5151 7.32002 21.0911 6.90403C21.6671 6.47202 22.3151 6.25602 23.0351 6.25602Z" fill="#10375C"/>
<path d="M29.1023 0.400024C29.7743 0.400024 30.3023 0.568025 30.6863 0.904025C31.0863 1.22402 31.2863 1.67202 31.2863 2.24802C31.2863 2.82402 31.0863 3.28002 30.6863 3.61602C30.3023 3.93602 29.7743 4.09602 29.1023 4.09602C28.4303 4.09602 27.8943 3.93602 27.4943 3.61602C27.1103 3.28002 26.9183 2.82402 26.9183 2.24802C26.9183 1.67202 27.1103 1.22402 27.4943 0.904025C27.8943 0.568025 28.4303 0.400024 29.1023 0.400024ZM30.9743 16.768C30.9743 17.424 31.0863 17.88 31.3103 18.136C31.5503 18.376 31.9503 18.496 32.5103 18.496V19C30.9103 18.936 29.8463 18.904 29.3183 18.904C28.8223 18.904 27.7103 18.936 25.9823 19V18.496C26.5583 18.496 26.9583 18.376 27.1823 18.136C27.4063 17.88 27.5183 17.424 27.5183 16.768V9.20802C27.5183 8.47202 27.4063 7.93602 27.1823 7.60002C26.9583 7.26402 26.5583 7.09602 25.9823 7.09602V6.59202C26.4943 6.64003 26.9903 6.66403 27.4703 6.66403C28.8943 6.66403 30.0623 6.55203 30.9743 6.32803V16.768Z" fill="#10375C"/>
<path d="M38.3046 6.25602C38.9126 6.25602 39.4726 6.33602 39.9846 6.49602C40.4966 6.64002 40.8886 6.80802 41.1606 7.00003C41.3206 7.11202 41.4646 7.16802 41.5926 7.16802C41.7366 7.16802 41.8566 7.09602 41.9526 6.95202C42.0646 6.79202 42.1366 6.56802 42.1686 6.28002H42.6726C42.6086 7.09602 42.5766 8.50402 42.5766 10.504H42.0726C41.9286 9.44803 41.6086 8.56803 41.1126 7.86403C40.6326 7.14403 39.9286 6.78403 39.0006 6.78403C38.5206 6.78403 38.1206 6.92003 37.8006 7.19203C37.4966 7.46403 37.3446 7.84002 37.3446 8.32002C37.3446 8.86402 37.5286 9.33602 37.8966 9.73602C38.2646 10.12 38.8406 10.592 39.6246 11.152L40.3206 11.656C41.2966 12.392 42.0166 13.048 42.4806 13.624C42.9446 14.2 43.1766 14.92 43.1766 15.784C43.1766 16.488 42.9686 17.112 42.5526 17.656C42.1526 18.2 41.6086 18.616 40.9206 18.904C40.2326 19.192 39.4726 19.336 38.6406 19.336C37.7606 19.336 37.0086 19.168 36.3846 18.832C35.8726 18.576 35.5046 18.408 35.2806 18.328C35.1206 18.28 34.9766 18.336 34.8486 18.496C34.7366 18.64 34.6486 18.864 34.5846 19.168H34.0806C34.1446 18.256 34.1766 16.656 34.1766 14.368H34.6806C35.0006 17.312 36.0806 18.784 37.9206 18.784C38.3846 18.784 38.7766 18.648 39.0966 18.376C39.4326 18.088 39.6006 17.656 39.6006 17.08C39.6006 16.632 39.4966 16.232 39.2886 15.88C39.0966 15.528 38.8486 15.216 38.5446 14.944C38.2406 14.672 37.7846 14.296 37.1766 13.816C36.4566 13.24 35.9046 12.776 35.5206 12.424C35.1526 12.072 34.8326 11.656 34.5606 11.176C34.3046 10.696 34.1766 10.16 34.1766 9.56803C34.1766 8.54403 34.5766 7.73602 35.3766 7.14402C36.1766 6.55202 37.1526 6.25602 38.3046 6.25602Z" fill="#10375C"/>
<path d="M53.2545 6.25602C54.0865 6.25602 54.8225 6.48002 55.4625 6.92802C56.1185 7.37602 56.6305 8.04803 56.9985 8.94403C57.3665 9.84003 57.5505 10.936 57.5505 12.232C57.5505 14.52 57.0465 16.28 56.0385 17.512C55.0465 18.728 53.6945 19.336 51.9825 19.336C51.5025 19.336 51.0465 19.272 50.6145 19.144C50.1985 19.016 49.8385 18.824 49.5345 18.568V20.968C49.5345 21.672 49.7105 22.16 50.0625 22.432C50.4145 22.704 50.9585 22.84 51.6945 22.84V23.344L51.0465 23.32C49.2705 23.272 48.1425 23.248 47.6625 23.248C47.1825 23.248 46.1745 23.28 44.6385 23.344V22.84C45.1665 22.84 45.5345 22.72 45.7425 22.48C45.9665 22.256 46.0785 21.832 46.0785 21.208V9.20802C46.0785 8.47202 45.9585 7.93602 45.7185 7.60002C45.4945 7.26402 45.1025 7.09602 44.5425 7.09602V6.59202C45.0545 6.64003 45.5505 6.66403 46.0305 6.66403C47.4225 6.66403 48.5905 6.55203 49.5345 6.32803V8.53603C49.8705 7.80002 50.3585 7.24002 50.9985 6.85602C51.6385 6.45602 52.3905 6.25602 53.2545 6.25602ZM51.0465 18.688C52.0705 18.688 52.8065 18.184 53.2545 17.176C53.7025 16.152 53.9265 14.664 53.9265 12.712C53.9265 10.76 53.7425 9.36803 53.3745 8.53603C53.0225 7.70402 52.5105 7.28802 51.8385 7.28802C51.2945 7.28802 50.8065 7.47202 50.3745 7.84002C49.9585 8.20802 49.6785 8.72002 49.5345 9.37602V18.04C49.9185 18.472 50.4225 18.688 51.0465 18.688Z" fill="#10375C"/>
<path d="M66.0851 17.368C67.3971 17.368 68.4531 16.728 69.2531 15.448L69.6851 15.592C69.3651 16.632 68.7891 17.52 67.9571 18.256C67.1411 18.976 66.1171 19.336 64.8851 19.336C63.1891 19.336 61.8371 18.8 60.8291 17.728C59.8371 16.64 59.3411 15.04 59.3411 12.928C59.3411 10.768 59.8771 9.12003 60.9491 7.98403C62.0211 6.83203 63.4451 6.25602 65.2211 6.25602C68.2291 6.25602 69.7331 8.03202 69.7331 11.584H62.9891C62.9731 11.824 62.9651 12.2 62.9651 12.712C62.9651 13.768 63.1091 14.648 63.3971 15.352C63.7011 16.056 64.0851 16.568 64.5491 16.888C65.0291 17.208 65.5411 17.368 66.0851 17.368ZM65.0771 6.76002C64.5011 6.76002 64.0211 7.12002 63.6371 7.84002C63.2691 8.54402 63.0371 9.64002 62.9411 11.128H66.7091C66.7411 9.86403 66.6131 8.82402 66.3251 8.00802C66.0531 7.17602 65.6371 6.76002 65.0771 6.76002Z" fill="#10375C"/>
<path d="M75.8749 6.25602C76.4829 6.25602 77.0429 6.33602 77.5549 6.49602C78.0669 6.64002 78.4589 6.80802 78.7309 7.00003C78.8909 7.11202 79.0349 7.16802 79.1629 7.16802C79.3069 7.16802 79.4269 7.09602 79.5229 6.95202C79.6349 6.79202 79.7069 6.56802 79.7389 6.28002H80.2429C80.1789 7.09602 80.1469 8.50402 80.1469 10.504H79.6429C79.4989 9.44803 79.1789 8.56803 78.6829 7.86403C78.2029 7.14403 77.4989 6.78403 76.5709 6.78403C76.0909 6.78403 75.6909 6.92003 75.3709 7.19203C75.0669 7.46403 74.9149 7.84002 74.9149 8.32002C74.9149 8.86402 75.0989 9.33602 75.4669 9.73602C75.8349 10.12 76.4109 10.592 77.1949 11.152L77.8909 11.656C78.8669 12.392 79.5869 13.048 80.0509 13.624C80.5149 14.2 80.7469 14.92 80.7469 15.784C80.7469 16.488 80.5389 17.112 80.1229 17.656C79.7229 18.2 79.1789 18.616 78.4909 18.904C77.8029 19.192 77.0429 19.336 76.2109 19.336C75.3309 19.336 74.5789 19.168 73.9549 18.832C73.4429 18.576 73.0749 18.408 72.8509 18.328C72.6909 18.28 72.5469 18.336 72.4189 18.496C72.3069 18.64 72.2189 18.864 72.1549 19.168H71.6509C71.7149 18.256 71.7469 16.656 71.7469 14.368H72.2509C72.5709 17.312 73.6509 18.784 75.4909 18.784C75.9549 18.784 76.3469 18.648 76.6669 18.376C77.0029 18.088 77.1709 17.656 77.1709 17.08C77.1709 16.632 77.0669 16.232 76.8589 15.88C76.6669 15.528 76.4189 15.216 76.1149 14.944C75.8109 14.672 75.3549 14.296 74.7469 13.816C74.0269 13.24 73.4749 12.776 73.0909 12.424C72.7229 12.072 72.4029 11.656 72.1309 11.176C71.8749 10.696 71.7469 10.16 71.7469 9.56803C71.7469 8.54403 72.1469 7.73602 72.9469 7.14402C73.7469 6.55202 74.7229 6.25602 75.8749 6.25602Z" fill="#10375C"/>
<path d="M84.8728 15.64C85.4968 15.64 85.9928 15.808 86.3608 16.144C86.7288 16.464 86.9128 16.912 86.9128 17.488C86.9128 18.064 86.7288 18.52 86.3608 18.856C85.9928 19.176 85.4968 19.336 84.8728 19.336C84.2488 19.336 83.7528 19.176 83.3848 18.856C83.0168 18.52 82.8328 18.064 82.8328 17.488C82.8328 16.912 83.0168 16.464 83.3848 16.144C83.7528 15.808 84.2488 15.64 84.8728 15.64Z" fill="#10375C"/>
</svg>
